<svg width="260" height="200" viewBox="0 0 260 200" fill="none" xmlns="http://www.w3.org/2000/svg">
  <style>
    .gold { fill: #c7923c; }
    .stroke { stroke: #c7923c; stroke-width: 6; }
    .text { font-family: 'Arial', sans-serif; font-weight: 800; fill: #c7923c; }
  </style>
  <path class="stroke" d="M50 30c0 60 0 90 40 130" stroke-linecap="round"/>
  <path class="stroke" d="M70 70c0 30 12 58 35 75" stroke-linecap="round"/>
  <path class="stroke" d="M50 30c60-20 120 10 120 70 0 60-50 100-100 90C40 180 20 150 20 110 20 70 30 40 50 30Z" stroke-linecap="round"/>
  <path class="stroke" d="M88 86c12-4 20-10 24-18" stroke-linecap="round"/>
  <path class="stroke" d="M90 110c10-2 18-6 22-12" stroke-linecap="round"/>
  <path class="stroke" d="M82 140c12-6 18-12 22-22" stroke-linecap="round"/>
  <text class="text" x="125" y="85" font-size="24" text-anchor="middle">BHUMI</text>
  <text class="text" x="125" y="115" font-size="24" text-anchor="middle">BAMBU</text>
  <text class="text" x="125" y="140" font-size="14" text-anchor="middle">BATURRADEN</text>
  <path class="stroke" d="M20 150c40 30 120 30 180 0" stroke-linecap="round" fill="none"/>
</svg>
